<svg xmlns="http://www.w3.org/2000/svg" viewBox="0 0 1200 250" preserveAspectRatio="none">
<style>svg { opacity: 0.20 !important; }</style>
<g>
<line x1="0" y1="0" x2="0" y2="250" stroke="white" stroke-width="3" opacity="0.6"/><line x1="40" y1="0" x2="40" y2="250" stroke="white" stroke-width="2" opacity="0.3"/><line x1="80" y1="0" x2="80" y2="250" stroke="white" stroke-width="2" opacity="0.3"/><line x1="120" y1="0" x2="120" y2="250" stroke="white" stroke-width="2" opacity="0.3"/><line x1="160" y1="0" x2="160" y2="250" stroke="white" stroke-width="3" opacity="0.6"/><line x1="200" y1="0" x2="200" y2="250" stroke="white" stroke-width="2" opacity="0.3"/><line x1="240" y1="0" x2="240" y2="250" stroke="white" stroke-width="2" opacity="0.3"/><line x1="280" y1="0" x2="280" y2="250" stroke="white" stroke-width="2" opacity="0.3"/><line x1="320" y1="0" x2="320" y2="250" stroke="white" stroke-width="3" opacity="0.6"/><line x1="360" y1="0" x2="360" y2="250" stroke="white" stroke-width="2" opacity="0.3"/><line x1="400" y1="0" x2="400" y2="250" stroke="white" stroke-width="2" opacity="0.3"/><line x1="440" y1="0" x2="440" y2="250" stroke="white" stroke-width="2" opacity="0.3"/><line x1="480" y1="0" x2="480" y2="250" stroke="white" stroke-width="3" opacity="0.6"/><line x1="520" y1="0" x2="520" y2="250" stroke="white" stroke-width="2" opacity="0.3"/><line x1="560" y1="0" x2="560" y2="250" stroke="white" stroke-width="2" opacity="0.3"/><line x1="600" y1="0" x2="600" y2="250" stroke="white" stroke-width="2" opacity="0.3"/><line x1="640" y1="0" x2="640" y2="250" stroke="white" stroke-width="3" opacity="0.6"/><line x1="680" y1="0" x2="680" y2="250" stroke="white" stroke-width="2" opacity="0.3"/><line x1="720" y1="0" x2="720" y2="250" stroke="white" stroke-width="2" opacity="0.3"/><line x1="760" y1="0" x2="760" y2="250" stroke="white" stroke-width="2" opacity="0.3"/><line x1="800" y1="0" x2="800" y2="250" stroke="white" stroke-width="3" opacity="0.6"/><line x1="840" y1="0" x2="840" y2="250" stroke="white" stroke-width="2" opacity="0.3"/><line x1="880" y1="0" x2="880" y2="250" stroke="white" stroke-width="2" opacity="0.3"/><line x1="920" y1="0" x2="920" y2="250" stroke="white" stroke-width="2" opacity="0.3"/><line x1="960" y1="0" x2="960" y2="250" stroke="white" stroke-width="3" opacity="0.6"/><line x1="1000" y1="0" x2="1000" y2="250" stroke="white" stroke-width="2" opacity="0.3"/><line x1="1040" y1="0" x2="1040" y2="250" stroke="white" stroke-width="2" opacity="0.3"/><line x1="1080" y1="0" x2="1080" y2="250" stroke="white" stroke-width="2" opacity="0.3"/><line x1="1120" y1="0" x2="1120" y2="250" stroke="white" stroke-width="3" opacity="0.6"/><line x1="1160" y1="0" x2="1160" y2="250" stroke="white" stroke-width="2" opacity="0.3"/><line x1="0" y1="0" x2="1200" y2="0" stroke="white" stroke-width="3" opacity="0.6"/><line x1="0" y1="40" x2="1200" y2="40" stroke="white" stroke-width="2" opacity="0.3"/><line x1="0" y1="80" x2="1200" y2="80" stroke="white" stroke-width="2" opacity="0.3"/><line x1="0" y1="120" x2="1200" y2="120" stroke="white" stroke-width="2" opacity="0.3"/><line x1="0" y1="160" x2="1200" y2="160" stroke="white" stroke-width="3" opacity="0.6"/><line x1="0" y1="200" x2="1200" y2="200" stroke="white" stroke-width="2" opacity="0.3"/><line x1="0" y1="240" x2="1200" y2="240" stroke="white" stroke-width="2" opacity="0.3"/>
<path d="M 120 40 L 120 60 M 110 50 L 130 50" stroke="white" stroke-width="2"/><circle cx="120" cy="50" r="5" fill="none" stroke="white" stroke-width="2"/><path d="M 800 160 L 800 180 M 790 170 L 810 170" stroke="white" stroke-width="2"/><circle cx="800" cy="170" r="15" fill="none" stroke="white" stroke-width="2"/><rect x="400" y="80" width="160" height="80" fill="none" stroke="white" stroke-width="3" opacity="0.5"/><line x1="400" y1="80" x2="560" y2="160" stroke="white" stroke-width="2" stroke-dasharray="6" opacity="0.4"/><line x1="400" y1="160" x2="560" y2="80" stroke="white" stroke-width="2" stroke-dasharray="6" opacity="0.4"/>
</g>
</svg>