<svg xmlns="http://www.w3.org/2000/svg" viewBox="0 0 500 200">
  <style>svg { opacity: 0.15 !important; fill: white !important; }</style>
  <!-- Hull -->
  <path fill-rule="evenodd" d="M 10 140 Q 50 180 250 180 Q 450 180 490 140 Q 450 155 400 155 L 100 155 Q 50 155 10 140 Z" />
  <!-- Large Thatched Roof -->
  <path d="M 100 155 C 120 30 380 30 400 155 Z" />
  <!-- Window Cutouts (will be transparent to show background) -->
  <path d="M 140 140 C 160 80 220 80 240 140 Z" fill="#07afb1" />
  <path d="M 260 140 C 280 80 340 80 360 140 Z" fill="#07afb1" />
  <!-- Window bars -->
  <rect x="185" y="100" width="10" height="40" fill="white" />
  <rect x="305" y="100" width="10" height="40" fill="white" />
  <!-- Bamboo poles / details -->
  <rect x="120" y="160" width="260" height="4" fill="white" />
  <!-- Water reflection lines -->
  <rect x="50" y="185" width="350" height="2" fill="white" opacity="0.5" />
  <rect x="100" y="192" width="250" height="2" fill="white" opacity="0.3" />
</svg>
