<svg xmlns="http://www.w3.org/2000/svg" viewBox="0 0 1200 250" preserveAspectRatio="none">
<style>svg { opacity: 0.15 !important; fill: white !important; }</style>
<g>
<rect x="-13" y="147" width="90" height="103" fill-opacity="0.4"/><rect x="97" y="119" width="97" height="131" fill-opacity="0.4"/><rect x="188" y="56" width="64" height="194" fill-opacity="0.4"/><rect x="314" y="139" width="56" height="111" fill-opacity="0.4"/><rect x="407" y="146" width="87" height="104" fill-opacity="0.4"/><rect x="485" y="123" width="51" height="127" fill-opacity="0.4"/><rect x="612" y="73" width="64" height="177" fill-opacity="0.4"/><rect x="715" y="125" width="51" height="125" fill-opacity="0.4"/><rect x="814" y="97" width="95" height="153" fill-opacity="0.4"/><rect x="908" y="75" width="64" height="175" fill-opacity="0.4"/><rect x="980" y="53" width="67" height="197" fill-opacity="0.4"/><rect x="1107" y="107" width="60" height="143" fill-opacity="0.4"/>
<rect x="-6" y="173" width="47" height="77" fill-opacity="0.8"/><rect x="40" y="152" width="36" height="98" fill-opacity="0.8"/><rect x="105" y="167" width="52" height="83" fill-opacity="0.8"/><rect x="151" y="185" width="59" height="65" fill-opacity="0.8"/><rect x="199" y="163" width="35" height="87" fill-opacity="0.8"/><rect x="248" y="176" width="53" height="74" fill-opacity="0.8"/><rect x="285" y="163" width="72" height="87" fill-opacity="0.8"/><rect x="329" y="152" width="44" height="98" fill-opacity="0.8"/><rect x="385" y="180" width="70" height="70" fill-opacity="0.8"/><rect x="430" y="111" width="43" height="139" fill-opacity="0.8"/><rect x="489" y="119" width="34" height="131" fill-opacity="0.8"/><rect x="525" y="180" width="76" height="70" fill-opacity="0.8"/><rect x="586" y="112" width="47" height="138" fill-opacity="0.8"/><rect x="624" y="193" width="73" height="57" fill-opacity="0.8"/><rect x="672" y="149" width="32" height="101" fill-opacity="0.8"/><rect x="728" y="160" width="43" height="90" fill-opacity="0.8"/><rect x="770" y="118" width="61" height="132" fill-opacity="0.8"/><rect x="810" y="169" width="46" height="81" fill-opacity="0.8"/><rect x="872" y="146" width="46" height="104" fill-opacity="0.8"/><rect x="909" y="183" width="53" height="67" fill-opacity="0.8"/><rect x="951" y="186" width="35" height="64" fill-opacity="0.8"/><rect x="1011" y="124" width="40" height="126" fill-opacity="0.8"/><rect x="1065" y="141" width="54" height="109" fill-opacity="0.8"/><rect x="1094" y="113" width="65" height="137" fill-opacity="0.8"/><rect x="1150" y="118" width="78" height="132" fill-opacity="0.8"/>
<rect x="15.5" y="143" width="4" height="50" fill-opacity="0.8"/><rect x="129.0" y="124" width="4" height="50" fill-opacity="0.8"/><rect x="178.5" y="153" width="4" height="50" fill-opacity="0.8"/><rect x="214.5" y="124" width="4" height="50" fill-opacity="0.8"/><polygon points="248,176 301,176 274.5,155" fill-opacity="0.8"/><rect x="319.0" y="116" width="4" height="50" fill-opacity="0.8"/><rect x="449.5" y="71" width="4" height="50" fill-opacity="0.8"/><polygon points="810,169 856,169 833.0,132" fill-opacity="0.8"/><rect x="893.0" y="114" width="4" height="50" fill-opacity="0.8"/><polygon points="1094,113 1159,113 1126.5,76" fill-opacity="0.8"/><path d="M 148 227 Q 143 197 146 167 Q 150 197 153 227" fill-opacity="0.9"/><path d="M 146 167 Q 128 162 123 187 Q 133 177 146 167" fill-opacity="0.9"/><path d="M 146 167 Q 168 162 173 187 Q 163 177 146 167" fill-opacity="0.9"/><path d="M 146 167 Q 148 142 133 137 Q 143 157 146 167" fill-opacity="0.9"/><path d="M 146 167 Q 148 142 163 137 Q 153 157 146 167" fill-opacity="0.9"/><path d="M 340 226 Q 335 196 338 166 Q 342 196 345 226" fill-opacity="0.9"/><path d="M 338 166 Q 320 161 315 186 Q 325 176 338 166" fill-opacity="0.9"/><path d="M 338 166 Q 360 161 365 186 Q 355 176 338 166" fill-opacity="0.9"/><path d="M 338 166 Q 340 141 325 136 Q 335 156 338 166" fill-opacity="0.9"/><path d="M 338 166 Q 340 141 355 136 Q 345 156 338 166" fill-opacity="0.9"/><path d="M 630 232 Q 625 202 628 172 Q 632 202 635 232" fill-opacity="0.9"/><path d="M 628 172 Q 610 167 605 192 Q 615 182 628 172" fill-opacity="0.9"/><path d="M 628 172 Q 650 167 655 192 Q 645 182 628 172" fill-opacity="0.9"/><path d="M 628 172 Q 630 147 615 142 Q 625 162 628 172" fill-opacity="0.9"/><path d="M 628 172 Q 630 147 645 142 Q 635 162 628 172" fill-opacity="0.9"/><path d="M 962 235 Q 957 205 960 175 Q 964 205 967 235" fill-opacity="0.9"/><path d="M 960 175 Q 942 170 937 195 Q 947 185 960 175" fill-opacity="0.9"/><path d="M 960 175 Q 982 170 987 195 Q 977 185 960 175" fill-opacity="0.9"/><path d="M 960 175 Q 962 150 947 145 Q 957 165 960 175" fill-opacity="0.9"/><path d="M 960 175 Q 962 150 977 145 Q 967 165 960 175" fill-opacity="0.9"/><path d="M 1112 237 Q 1107 207 1110 177 Q 1114 207 1117 237" fill-opacity="0.9"/><path d="M 1110 177 Q 1092 172 1087 197 Q 1097 187 1110 177" fill-opacity="0.9"/><path d="M 1110 177 Q 1132 172 1137 197 Q 1127 187 1110 177" fill-opacity="0.9"/><path d="M 1110 177 Q 1112 152 1097 147 Q 1107 167 1110 177" fill-opacity="0.9"/><path d="M 1110 177 Q 1112 152 1127 147 Q 1117 167 1110 177" fill-opacity="0.9"/>
<path d="M 0 240 Q 100 230 200 240 T 400 240 T 600 240 T 800 240 T 1000 240 T 1200 240 L 1200 250 L 0 250 Z" fill-opacity="1"/>
</g>
</svg>