<svg xmlns="http://www.w3.org/2000/svg" viewBox="0 0 1200 250" preserveAspectRatio="none">
<style>svg { opacity: 0.20 !important; }</style>
<g>
<line x1="1170" y1="8" x2="1197" y2="83" stroke="white" stroke-width="1.5" opacity="0.7167260229315164"/><line x1="1170" y1="8" x2="1017" y2="77" stroke="white" stroke-width="1.5" opacity="0.6997628110835528"/><line x1="1170" y1="8" x2="1065" y2="123" stroke="white" stroke-width="1.5" opacity="0.36964982844382627"/><line x1="988" y1="147" x2="900" y2="157" stroke="white" stroke-width="1.5" opacity="0.6873007278930849"/><line x1="988" y1="147" x2="892" y2="120" stroke="white" stroke-width="1.5" opacity="0.7613217988874297"/><line x1="988" y1="147" x2="1017" y2="77" stroke="white" stroke-width="1.5" opacity="0.4716146756940156"/><line x1="422" y1="118" x2="568" y2="167" stroke="white" stroke-width="1.5" opacity="0.6943648960362014"/><line x1="422" y1="118" x2="284" y2="154" stroke="white" stroke-width="1.5" opacity="0.5291229830060549"/><line x1="422" y1="118" x2="537" y2="116" stroke="white" stroke-width="1.5" opacity="0.464187437480424"/><line x1="568" y1="167" x2="537" y2="116" stroke="white" stroke-width="1.5" opacity="0.5616946106911724"/><line x1="568" y1="167" x2="620" y2="169" stroke="white" stroke-width="1.5" opacity="0.6698206291993798"/><line x1="568" y1="167" x2="482" y2="34" stroke="white" stroke-width="1.5" opacity="0.46153094030585884"/><line x1="70" y1="133" x2="90" y2="149" stroke="white" stroke-width="1.5" opacity="0.39778915212526994"/><line x1="70" y1="133" x2="10" y2="139" stroke="white" stroke-width="1.5" opacity="0.7523345216681382"/><line x1="70" y1="133" x2="128" y2="42" stroke="white" stroke-width="1.5" opacity="0.5876593389713138"/><line x1="671" y1="19" x2="739" y2="11" stroke="white" stroke-width="1.5" opacity="0.31245139840092084"/><line x1="671" y1="19" x2="781" y2="107" stroke="white" stroke-width="1.5" opacity="0.3581879465369725"/><line x1="671" y1="19" x2="537" y2="116" stroke="white" stroke-width="1.5" opacity="0.448140264434206"/><line x1="739" y1="11" x2="781" y2="107" stroke="white" stroke-width="1.5" opacity="0.4232702647084086"/><line x1="739" y1="11" x2="620" y2="137" stroke="white" stroke-width="1.5" opacity="0.44465565938011364"/><line x1="739" y1="11" x2="904" y2="42" stroke="white" stroke-width="1.5" opacity="0.344523298912629"/><line x1="284" y1="154" x2="272" y2="116" stroke="white" stroke-width="1.5" opacity="0.5753104745106343"/><line x1="284" y1="154" x2="306" y2="98" stroke="white" stroke-width="1.5" opacity="0.7918391442387511"/><line x1="284" y1="154" x2="306" y2="28" stroke="white" stroke-width="1.5" opacity="0.3528016648490703"/><line x1="781" y1="107" x2="620" y2="169" stroke="white" stroke-width="1.5" opacity="0.3813166896626402"/><line x1="781" y1="107" x2="900" y2="157" stroke="white" stroke-width="1.5" opacity="0.5386630145507809"/><line x1="781" y1="107" x2="620" y2="137" stroke="white" stroke-width="1.5" opacity="0.4804922282514451"/><line x1="537" y1="116" x2="620" y2="169" stroke="white" stroke-width="1.5" opacity="0.6934249214528997"/><line x1="537" y1="116" x2="482" y2="34" stroke="white" stroke-width="1.5" opacity="0.7929281374434705"/><line x1="537" y1="116" x2="620" y2="137" stroke="white" stroke-width="1.5" opacity="0.3912720713009896"/><line x1="620" y1="169" x2="620" y2="137" stroke="white" stroke-width="1.5" opacity="0.5133731998790154"/><line x1="620" y1="169" x2="491" y2="80" stroke="white" stroke-width="1.5" opacity="0.7931367937326466"/><line x1="620" y1="169" x2="459" y2="248" stroke="white" stroke-width="1.5" opacity="0.6421883024264053"/><line x1="272" y1="116" x2="306" y2="98" stroke="white" stroke-width="1.5" opacity="0.7811018089345096"/><line x1="272" y1="116" x2="306" y2="28" stroke="white" stroke-width="1.5" opacity="0.7315863316644073"/><line x1="272" y1="116" x2="293" y2="158" stroke="white" stroke-width="1.5" opacity="0.6757060009808719"/><line x1="900" y1="157" x2="892" y2="120" stroke="white" stroke-width="1.5" opacity="0.6612372443954899"/><line x1="900" y1="157" x2="1017" y2="77" stroke="white" stroke-width="1.5" opacity="0.5238111520710338"/><line x1="900" y1="157" x2="904" y2="42" stroke="white" stroke-width="1.5" opacity="0.6717223985326285"/><line x1="90" y1="149" x2="244" y2="68" stroke="white" stroke-width="1.5" opacity="0.5987653030616251"/><line x1="90" y1="149" x2="10" y2="139" stroke="white" stroke-width="1.5" opacity="0.35796373496676515"/><line x1="90" y1="149" x2="128" y2="42" stroke="white" stroke-width="1.5" opacity="0.6913823016998503"/><line x1="482" y1="34" x2="620" y2="137" stroke="white" stroke-width="1.5" opacity="0.5119390763706453"/><line x1="482" y1="34" x2="491" y2="80" stroke="white" stroke-width="1.5" opacity="0.504231604467812"/><line x1="482" y1="34" x2="488" y2="9" stroke="white" stroke-width="1.5" opacity="0.49092131730667293"/><line x1="620" y1="137" x2="491" y2="80" stroke="white" stroke-width="1.5" opacity="0.3998703690997238"/><line x1="620" y1="137" x2="714" y2="110" stroke="white" stroke-width="1.5" opacity="0.6861379639190364"/><line x1="620" y1="137" x2="619" y2="42" stroke="white" stroke-width="1.5" opacity="0.6985596675016816"/><line x1="491" y1="80" x2="459" y2="248" stroke="white" stroke-width="1.5" opacity="0.4740022460173744"/><line x1="491" y1="80" x2="488" y2="9" stroke="white" stroke-width="1.5" opacity="0.4801110672089225"/><line x1="491" y1="80" x2="619" y2="42" stroke="white" stroke-width="1.5" opacity="0.5120855776943247"/><line x1="892" y1="120" x2="1017" y2="77" stroke="white" stroke-width="1.5" opacity="0.6747230666968398"/><line x1="892" y1="120" x2="904" y2="42" stroke="white" stroke-width="1.5" opacity="0.5333404708469996"/><line x1="892" y1="120" x2="714" y2="110" stroke="white" stroke-width="1.5" opacity="0.44700071702341343"/><line x1="1197" y1="83" x2="1065" y2="123" stroke="white" stroke-width="1.5" opacity="0.7540181579575764"/><line x1="1197" y1="83" x2="1103" y2="99" stroke="white" stroke-width="1.5" opacity="0.502279628968409"/><line x1="459" y1="248" x2="360" y2="122" stroke="white" stroke-width="1.5" opacity="0.4744896051531523"/><line x1="459" y1="248" x2="494" y2="188" stroke="white" stroke-width="1.5" opacity="0.43853038282169593"/><line x1="459" y1="248" x2="339" y2="143" stroke="white" stroke-width="1.5" opacity="0.7529949108018188"/><line x1="488" y1="9" x2="619" y2="42" stroke="white" stroke-width="1.5" opacity="0.5935938368734396"/><line x1="488" y1="9" x2="360" y2="122" stroke="white" stroke-width="1.5" opacity="0.3419747221828948"/><line x1="488" y1="9" x2="496" y2="20" stroke="white" stroke-width="1.5" opacity="0.569903547018199"/><line x1="1017" y1="77" x2="1092" y2="236" stroke="white" stroke-width="1.5" opacity="0.6610374309318396"/><line x1="1017" y1="77" x2="904" y2="42" stroke="white" stroke-width="1.5" opacity="0.7554387546835089"/><line x1="1017" y1="77" x2="912" y2="62" stroke="white" stroke-width="1.5" opacity="0.3842546931085212"/><line x1="1092" y1="236" x2="1065" y2="123" stroke="white" stroke-width="1.5" opacity="0.5078721065843685"/><line x1="1092" y1="236" x2="945" y2="229" stroke="white" stroke-width="1.5" opacity="0.5821193824167872"/><line x1="1092" y1="236" x2="1103" y2="99" stroke="white" stroke-width="1.5" opacity="0.5977670574459677"/><line x1="306" y1="98" x2="306" y2="28" stroke="white" stroke-width="1.5" opacity="0.45308692312358995"/><line x1="306" y1="98" x2="293" y2="158" stroke="white" stroke-width="1.5" opacity="0.5958862383949224"/><line x1="306" y1="98" x2="244" y2="68" stroke="white" stroke-width="1.5" opacity="0.6257284772474214"/><line x1="306" y1="28" x2="293" y2="158" stroke="white" stroke-width="1.5" opacity="0.49826781232024087"/><line x1="306" y1="28" x2="244" y2="68" stroke="white" stroke-width="1.5" opacity="0.48699134246379894"/><line x1="306" y1="28" x2="360" y2="122" stroke="white" stroke-width="1.5" opacity="0.602870378592482"/><line x1="904" y1="42" x2="912" y2="62" stroke="white" stroke-width="1.5" opacity="0.45386156773363506"/><line x1="904" y1="42" x2="917" y2="103" stroke="white" stroke-width="1.5" opacity="0.5780532903618094"/><line x1="904" y1="42" x2="898" y2="137" stroke="white" stroke-width="1.5" opacity="0.7085659196068933"/><line x1="714" y1="110" x2="619" y2="42" stroke="white" stroke-width="1.5" opacity="0.5850145278309014"/><line x1="714" y1="110" x2="671" y2="111" stroke="white" stroke-width="1.5" opacity="0.33694462757983695"/><line x1="714" y1="110" x2="679" y2="229" stroke="white" stroke-width="1.5" opacity="0.5108276940574021"/><line x1="912" y1="62" x2="917" y2="103" stroke="white" stroke-width="1.5" opacity="0.7919400082502985"/><line x1="912" y1="62" x2="1065" y2="123" stroke="white" stroke-width="1.5" opacity="0.7574574305670743"/><line x1="912" y1="62" x2="945" y2="229" stroke="white" stroke-width="1.5" opacity="0.7022765937059816"/><line x1="293" y1="158" x2="244" y2="68" stroke="white" stroke-width="1.5" opacity="0.49623952061432325"/><line x1="293" y1="158" x2="360" y2="122" stroke="white" stroke-width="1.5" opacity="0.4696721868514421"/><line x1="293" y1="158" x2="278" y2="107" stroke="white" stroke-width="1.5" opacity="0.7440179637604991"/><line x1="244" y1="68" x2="360" y2="122" stroke="white" stroke-width="1.5" opacity="0.7663186811276286"/><line x1="244" y1="68" x2="128" y2="42" stroke="white" stroke-width="1.5" opacity="0.5820357559771898"/><line x1="244" y1="68" x2="278" y2="107" stroke="white" stroke-width="1.5" opacity="0.6853846004409578"/><line x1="619" y1="42" x2="671" y2="111" stroke="white" stroke-width="1.5" opacity="0.7351223410951123"/><line x1="619" y1="42" x2="496" y2="20" stroke="white" stroke-width="1.5" opacity="0.6288170534829899"/><line x1="360" y1="122" x2="496" y2="20" stroke="white" stroke-width="1.5" opacity="0.31827538596532945"/><line x1="360" y1="122" x2="494" y2="188" stroke="white" stroke-width="1.5" opacity="0.4829832228263331"/><line x1="360" y1="122" x2="278" y2="107" stroke="white" stroke-width="1.5" opacity="0.7675860717781939"/><line x1="671" y1="111" x2="679" y2="229" stroke="white" stroke-width="1.5" opacity="0.6191789953836432"/><line x1="671" y1="111" x2="799" y2="235" stroke="white" stroke-width="1.5" opacity="0.6863571739112426"/><line x1="10" y1="139" x2="128" y2="42" stroke="white" stroke-width="1.5" opacity="0.694661165269029"/><line x1="10" y1="139" x2="72" y2="223" stroke="white" stroke-width="1.5" opacity="0.47270139604746536"/><line x1="10" y1="139" x2="103" y2="89" stroke="white" stroke-width="1.5" opacity="0.3821387023893696"/><line x1="679" y1="229" x2="799" y2="235" stroke="white" stroke-width="1.5" opacity="0.5683489639726216"/><line x1="496" y1="20" x2="494" y2="188" stroke="white" stroke-width="1.5" opacity="0.3441035382353315"/><line x1="917" y1="103" x2="799" y2="235" stroke="white" stroke-width="1.5" opacity="0.7404538473028573"/><line x1="917" y1="103" x2="1065" y2="123" stroke="white" stroke-width="1.5" opacity="0.3298284707423633"/><line x1="917" y1="103" x2="945" y2="229" stroke="white" stroke-width="1.5" opacity="0.7619873161076136"/><line x1="799" y1="235" x2="945" y2="229" stroke="white" stroke-width="1.5" opacity="0.5354041323432883"/><line x1="799" y1="235" x2="898" y2="137" stroke="white" stroke-width="1.5" opacity="0.5258078631854021"/><line x1="494" y1="188" x2="339" y2="143" stroke="white" stroke-width="1.5" opacity="0.6020843683745447"/><line x1="1065" y1="123" x2="945" y2="229" stroke="white" stroke-width="1.5" opacity="0.5117897451754819"/><line x1="1065" y1="123" x2="1103" y2="99" stroke="white" stroke-width="1.5" opacity="0.7124731695031665"/><line x1="1065" y1="123" x2="898" y2="137" stroke="white" stroke-width="1.5" opacity="0.7778240381135664"/><line x1="128" y1="42" x2="278" y2="107" stroke="white" stroke-width="1.5" opacity="0.4941197484520683"/><line x1="128" y1="42" x2="103" y2="89" stroke="white" stroke-width="1.5" opacity="0.3485161521766244"/><line x1="945" y1="229" x2="898" y2="137" stroke="white" stroke-width="1.5" opacity="0.3206718665816006"/><line x1="278" y1="107" x2="339" y2="143" stroke="white" stroke-width="1.5" opacity="0.6200268955300803"/><line x1="278" y1="107" x2="202" y2="247" stroke="white" stroke-width="1.5" opacity="0.3950640088692773"/><line x1="278" y1="107" x2="103" y2="89" stroke="white" stroke-width="1.5" opacity="0.5143836206743778"/><line x1="339" y1="143" x2="202" y2="247" stroke="white" stroke-width="1.5" opacity="0.5795584439341583"/><line x1="339" y1="143" x2="311" y2="27" stroke="white" stroke-width="1.5" opacity="0.7801280910145421"/><line x1="202" y1="247" x2="72" y2="223" stroke="white" stroke-width="1.5" opacity="0.3827465255222225"/><line x1="72" y1="223" x2="103" y2="89" stroke="white" stroke-width="1.5" opacity="0.4116593928990589"/>
<circle cx="1170" cy="8" r="8" fill="#07afb1" stroke="white" stroke-width="2"/><circle cx="988" cy="147" r="8" fill="white"/><circle cx="422" cy="118" r="8" fill="#07afb1" stroke="white" stroke-width="2"/><circle cx="568" cy="167" r="8" fill="white"/><circle cx="70" cy="133" r="8" fill="#07afb1" stroke="white" stroke-width="2"/><circle cx="671" cy="19" r="8" fill="#07afb1" stroke="white" stroke-width="2"/><circle cx="739" cy="11" r="8" fill="#07afb1" stroke="white" stroke-width="2"/><circle cx="284" cy="154" r="8" fill="#07afb1" stroke="white" stroke-width="2"/><circle cx="781" cy="107" r="8" fill="white"/><circle cx="537" cy="116" r="8" fill="#07afb1" stroke="white" stroke-width="2"/><circle cx="620" cy="169" r="8" fill="white"/><circle cx="272" cy="116" r="8" fill="#07afb1" stroke="white" stroke-width="2"/><circle cx="900" cy="157" r="8" fill="white"/><circle cx="90" cy="149" r="8" fill="white"/><circle cx="482" cy="34" r="8" fill="#07afb1" stroke="white" stroke-width="2"/><circle cx="620" cy="137" r="8" fill="#07afb1" stroke="white" stroke-width="2"/><circle cx="491" cy="80" r="8" fill="white"/><circle cx="892" cy="120" r="8" fill="white"/><circle cx="1197" cy="83" r="8" fill="#07afb1" stroke="white" stroke-width="2"/><circle cx="459" cy="248" r="8" fill="#07afb1" stroke="white" stroke-width="2"/><circle cx="488" cy="9" r="8" fill="white"/><circle cx="1017" cy="77" r="8" fill="#07afb1" stroke="white" stroke-width="2"/><circle cx="1092" cy="236" r="8" fill="#07afb1" stroke="white" stroke-width="2"/><circle cx="306" cy="98" r="8" fill="white"/><circle cx="306" cy="28" r="8" fill="white"/><circle cx="904" cy="42" r="8" fill="white"/><circle cx="714" cy="110" r="8" fill="#07afb1" stroke="white" stroke-width="2"/><circle cx="912" cy="62" r="8" fill="#07afb1" stroke="white" stroke-width="2"/><circle cx="293" cy="158" r="8" fill="white"/><circle cx="244" cy="68" r="8" fill="#07afb1" stroke="white" stroke-width="2"/><circle cx="619" cy="42" r="8" fill="#07afb1" stroke="white" stroke-width="2"/><circle cx="360" cy="122" r="8" fill="white"/><circle cx="671" cy="111" r="8" fill="white"/><circle cx="10" cy="139" r="8" fill="#07afb1" stroke="white" stroke-width="2"/><circle cx="679" cy="229" r="8" fill="#07afb1" stroke="white" stroke-width="2"/><circle cx="496" cy="20" r="8" fill="white"/><circle cx="917" cy="103" r="8" fill="white"/><circle cx="799" cy="235" r="8" fill="white"/><circle cx="494" cy="188" r="8" fill="white"/><circle cx="1065" cy="123" r="8" fill="#07afb1" stroke="white" stroke-width="2"/><circle cx="128" cy="42" r="8" fill="#07afb1" stroke="white" stroke-width="2"/><circle cx="945" cy="229" r="8" fill="#07afb1" stroke="white" stroke-width="2"/><circle cx="278" cy="107" r="8" fill="#07afb1" stroke="white" stroke-width="2"/><circle cx="1103" cy="99" r="8" fill="#07afb1" stroke="white" stroke-width="2"/><circle cx="339" cy="143" r="8" fill="#07afb1" stroke="white" stroke-width="2"/><circle cx="202" cy="247" r="8" fill="#07afb1" stroke="white" stroke-width="2"/><circle cx="72" cy="223" r="8" fill="#07afb1" stroke="white" stroke-width="2"/><circle cx="898" cy="137" r="8" fill="white"/><circle cx="103" cy="89" r="8" fill="#07afb1" stroke="white" stroke-width="2"/><circle cx="311" cy="27" r="8" fill="#07afb1" stroke="white" stroke-width="2"/>
</g>
</svg>