<svg xmlns="http://www.w3.org/2000/svg" viewBox="0 0 1920 400" preserveAspectRatio="xMidYMid slice">
<style>svg { opacity: 0.20 !important; }</style>
<g>
<circle cx="200" cy="150" r="30" fill="none" stroke="white" stroke-width="4.50" opacity="0.6"/><circle cx="200" cy="150" r="60" fill="none" stroke="white" stroke-width="3.92" opacity="0.5"/><circle cx="200" cy="150" r="90" fill="none" stroke="white" stroke-width="3.33" opacity="0.39999999999999997"/><circle cx="200" cy="150" r="120" fill="none" stroke="white" stroke-width="2.75" opacity="0.3"/><circle cx="200" cy="150" r="150" fill="none" stroke="white" stroke-width="2.17" opacity="0.2"/><circle cx="200" cy="150" r="180" fill="none" stroke="white" stroke-width="1.58" opacity="0.09999999999999998"/><circle cx="200" cy="150" r="210" fill="none" stroke="white" stroke-width="1.00" opacity="0.02"/><circle cx="550" cy="300" r="30" fill="none" stroke="white" stroke-width="4.50" opacity="0.6124999999999999"/><circle cx="550" cy="300" r="60" fill="none" stroke="white" stroke-width="4.00" opacity="0.5249999999999999"/><circle cx="550" cy="300" r="90" fill="none" stroke="white" stroke-width="3.50" opacity="0.4375"/><circle cx="550" cy="300" r="120" fill="none" stroke="white" stroke-width="3.00" opacity="0.35"/><circle cx="550" cy="300" r="150" fill="none" stroke="white" stroke-width="2.50" opacity="0.26249999999999996"/><circle cx="550" cy="300" r="180" fill="none" stroke="white" stroke-width="2.00" opacity="0.17500000000000004"/><circle cx="550" cy="300" r="210" fill="none" stroke="white" stroke-width="1.50" opacity="0.08750000000000002"/><circle cx="550" cy="300" r="240" fill="none" stroke="white" stroke-width="1.00" opacity="0.02"/><circle cx="800" cy="80" r="30" fill="none" stroke="white" stroke-width="4.50" opacity="0.5833333333333333"/><circle cx="800" cy="80" r="60" fill="none" stroke="white" stroke-width="3.80" opacity="0.4666666666666667"/><circle cx="800" cy="80" r="90" fill="none" stroke="white" stroke-width="3.10" opacity="0.35"/><circle cx="800" cy="80" r="120" fill="none" stroke="white" stroke-width="2.40" opacity="0.23333333333333334"/><circle cx="800" cy="80" r="150" fill="none" stroke="white" stroke-width="1.70" opacity="0.1166666666666667"/><circle cx="800" cy="80" r="180" fill="none" stroke="white" stroke-width="1.00" opacity="0.02"/><circle cx="1150" cy="250" r="30" fill="none" stroke="white" stroke-width="4.50" opacity="0.6124999999999999"/><circle cx="1150" cy="250" r="60" fill="none" stroke="white" stroke-width="4.00" opacity="0.5249999999999999"/><circle cx="1150" cy="250" r="90" fill="none" stroke="white" stroke-width="3.50" opacity="0.4375"/><circle cx="1150" cy="250" r="120" fill="none" stroke="white" stroke-width="3.00" opacity="0.35"/><circle cx="1150" cy="250" r="150" fill="none" stroke="white" stroke-width="2.50" opacity="0.26249999999999996"/><circle cx="1150" cy="250" r="180" fill="none" stroke="white" stroke-width="2.00" opacity="0.17500000000000004"/><circle cx="1150" cy="250" r="210" fill="none" stroke="white" stroke-width="1.50" opacity="0.08750000000000002"/><circle cx="1150" cy="250" r="240" fill="none" stroke="white" stroke-width="1.00" opacity="0.02"/><circle cx="1450" cy="100" r="30" fill="none" stroke="white" stroke-width="4.50" opacity="0.6"/><circle cx="1450" cy="100" r="60" fill="none" stroke="white" stroke-width="3.92" opacity="0.5"/><circle cx="1450" cy="100" r="90" fill="none" stroke="white" stroke-width="3.33" opacity="0.39999999999999997"/><circle cx="1450" cy="100" r="120" fill="none" stroke="white" stroke-width="2.75" opacity="0.3"/><circle cx="1450" cy="100" r="150" fill="none" stroke="white" stroke-width="2.17" opacity="0.2"/><circle cx="1450" cy="100" r="180" fill="none" stroke="white" stroke-width="1.58" opacity="0.09999999999999998"/><circle cx="1450" cy="100" r="210" fill="none" stroke="white" stroke-width="1.00" opacity="0.02"/><circle cx="1700" cy="320" r="30" fill="none" stroke="white" stroke-width="4.50" opacity="0.6124999999999999"/><circle cx="1700" cy="320" r="60" fill="none" stroke="white" stroke-width="4.00" opacity="0.5249999999999999"/><circle cx="1700" cy="320" r="90" fill="none" stroke="white" stroke-width="3.50" opacity="0.4375"/><circle cx="1700" cy="320" r="120" fill="none" stroke="white" stroke-width="3.00" opacity="0.35"/><circle cx="1700" cy="320" r="150" fill="none" stroke="white" stroke-width="2.50" opacity="0.26249999999999996"/><circle cx="1700" cy="320" r="180" fill="none" stroke="white" stroke-width="2.00" opacity="0.17500000000000004"/><circle cx="1700" cy="320" r="210" fill="none" stroke="white" stroke-width="1.50" opacity="0.08750000000000002"/><circle cx="1700" cy="320" r="240" fill="none" stroke="white" stroke-width="1.00" opacity="0.02"/>
</g>
</svg>