<svg xmlns="http://www.w3.org/2000/svg" viewBox="0 0 1200 250" preserveAspectRatio="none">
<style>
    svg { opacity: 0.15 !important; stroke: white !important; }
    path { stroke: white !important; }
</style>
<g>
<path d="M -50 150 L 300 150 L 350 200 L 800 200 L 850 150 L 1250 150" fill="none" stroke-width="4" stroke-linejoin="round"/><path d="M 100 -50 L 100 100 L 150 150 L 150 300" fill="none" stroke-width="4" stroke-linejoin="round"/><path d="M 500 -50 L 500 100 L 400 200 L 400 300" fill="none" stroke-width="4" stroke-linejoin="round"/><path d="M 700 300 L 700 250 L 800 150 L 1000 150 L 1050 100 L 1250 100" fill="none" stroke-width="4" stroke-linejoin="round"/><path d="M -50 50 L 250 50 L 300 100 L 500 100 L 550 50 L 900 50 L 950 100 L 1250 100" fill="none" stroke-width="4" stroke-linejoin="round"/>
<circle cx="100" cy="150" r="4" fill="white" stroke="white"/><circle cx="300" cy="150" r="4" fill="white" stroke="white"/><circle cx="350" cy="200" r="6" fill="#07afb1" stroke="white" stroke-width="2"/><circle cx="500" cy="200" r="4" fill="white" stroke="white"/><circle cx="800" cy="200" r="4" fill="white" stroke="white"/><circle cx="850" cy="150" r="4" fill="white" stroke="white"/><circle cx="1100" cy="150" r="4" fill="white" stroke="white"/><circle cx="100" cy="100" r="6" fill="#07afb1" stroke="white" stroke-width="2"/><circle cx="150" cy="150" r="4" fill="white" stroke="white"/><circle cx="150" cy="250" r="4" fill="white" stroke="white"/><circle cx="500" cy="100" r="4" fill="white" stroke="white"/><circle cx="400" cy="200" r="6" fill="#07afb1" stroke="white" stroke-width="2"/><circle cx="400" cy="250" r="4" fill="white" stroke="white"/><circle cx="700" cy="250" r="4" fill="white" stroke="white"/><circle cx="800" cy="150" r="4" fill="white" stroke="white"/><circle cx="1000" cy="150" r="4" fill="white" stroke="white"/><circle cx="1050" cy="100" r="4" fill="white" stroke="white"/><circle cx="50" cy="50" r="4" fill="white" stroke="white"/><circle cx="250" cy="50" r="4" fill="white" stroke="white"/><circle cx="300" cy="100" r="4" fill="white" stroke="white"/><circle cx="550" cy="50" r="6" fill="#07afb1" stroke="white" stroke-width="2"/><circle cx="900" cy="50" r="4" fill="white" stroke="white"/><circle cx="950" cy="100" r="4" fill="white" stroke="white"/>
</g>
</svg>