<svg xmlns="http://www.w3.org/2000/svg" viewBox="0 0 1440 320">
  <style>svg { opacity: 0.15 !important; fill: white !important; }</style>
  <path fill="white" d="M0,192L48,181.3C96,171,192,149,288,149.3C384,149,480,171,576,176C672,181,768,171,864,154.7C960,139,1056,117,1152,112C1248,107,1344,117,1392,122.7L1440,128L1440,320L1392,320C1344,320,1248,320,1152,320C1056,320,960,320,864,320C768,320,672,320,576,320C480,320,384,320,288,320C192,320,96,320,48,320L0,320Z"></path>
  <path fill="white" fill-opacity="0.5" d="M0,96L48,112C96,128,192,160,288,165.3C384,171,480,149,576,144C672,139,768,149,864,154.7C960,160,1056,160,1152,144C1248,128,1344,96,1392,80L1440,64L1440,320L1392,320C1344,320,1248,320,1152,320C1056,320,960,320,864,320C768,320,672,320,576,320C480,320,384,320,288,320C192,320,96,320,48,320L0,320Z"></path>
</svg>